<svg xmlns="http://www.w3.org/2000/svg" xmlns:xlink="http://www.w3.org/1999/xlink" width="900" zoomAndPan="magnify" viewBox="0 0 675 675.000002" height="900" preserveAspectRatio="xMidYMid meet" version="1.0"><defs><clipPath id="3d6b8a93fe"><path d="M 0.5 0 L 674.5 0 L 674.5 674 L 0.5 674 Z M 0.5 0 " clip-rule="nonzero"/></clipPath><clipPath id="4478c709f3"><path d="M 337.5 0 C 151.378906 0 0.5 150.878906 0.5 337 C 0.5 523.121094 151.378906 674 337.5 674 C 523.621094 674 674.5 523.121094 674.5 337 C 674.5 150.878906 523.621094 0 337.5 0 Z M 337.5 0 " clip-rule="nonzero"/></clipPath><clipPath id="e9da755913"><path d="M 14.082031 13.585938 L 660.914062 13.585938 L 660.914062 660.414062 L 14.082031 660.414062 Z M 14.082031 13.585938 " clip-rule="nonzero"/></clipPath><clipPath id="0d0f12fe33"><path d="M 337.5 13.585938 C 158.882812 13.585938 14.082031 158.382812 14.082031 337 C 14.082031 515.617188 158.882812 660.414062 337.5 660.414062 C 516.117188 660.414062 660.914062 515.617188 660.914062 337 C 660.914062 158.382812 516.117188 13.585938 337.5 13.585938 Z M 337.5 13.585938 " clip-rule="nonzero"/></clipPath><clipPath id="2274578a0f"><path d="M 24.535156 24.035156 L 650.464844 24.035156 L 650.464844 649.964844 L 24.535156 649.964844 Z M 24.535156 24.035156 " clip-rule="nonzero"/></clipPath><clipPath id="70ba36b805"><path d="M 337.5 24.035156 C 164.652344 24.035156 24.535156 164.152344 24.535156 337 C 24.535156 509.847656 164.652344 649.964844 337.5 649.964844 C 510.347656 649.964844 650.464844 509.847656 650.464844 337 C 650.464844 164.152344 510.347656 24.035156 337.5 24.035156 Z M 337.5 24.035156 " clip-rule="nonzero"/></clipPath><clipPath id="f43134aa58"><path d="M 52.367188 51.867188 L 622.273438 51.867188 L 622.273438 621.773438 L 52.367188 621.773438 Z M 52.367188 51.867188 " clip-rule="nonzero"/></clipPath><clipPath id="e10248ce39"><path d="M 337.496094 51.867188 C 180.023438 51.867188 52.367188 179.523438 52.367188 336.996094 C 52.367188 494.46875 180.023438 622.125 337.496094 622.125 C 494.964844 622.125 622.621094 494.46875 622.621094 336.996094 C 622.621094 179.523438 494.964844 51.867188 337.496094 51.867188 Z M 337.496094 51.867188 " clip-rule="nonzero"/></clipPath><clipPath id="0f4adfa42b"><path d="M 263.046875 262.546875 L 411.953125 262.546875 L 411.953125 411.453125 L 263.046875 411.453125 Z M 263.046875 262.546875 " clip-rule="nonzero"/></clipPath><clipPath id="1324762af1"><path d="M 337.5 262.546875 C 296.378906 262.546875 263.046875 295.882812 263.046875 337 C 263.046875 378.121094 296.378906 411.453125 337.5 411.453125 C 378.621094 411.453125 411.953125 378.121094 411.953125 337 C 411.953125 295.882812 378.621094 262.546875 337.5 262.546875 Z M 337.5 262.546875 " clip-rule="nonzero"/></clipPath><clipPath id="de4776f663"><path d="M 263.046875 262.546875 L 411.945312 262.546875 L 411.945312 411.449219 L 263.046875 411.449219 Z M 263.046875 262.546875 " clip-rule="nonzero"/></clipPath><clipPath id="a5e234f4fb"><path d="M 337.496094 262.546875 C 296.378906 262.546875 263.046875 295.878906 263.046875 336.996094 C 263.046875 378.113281 296.378906 411.449219 337.496094 411.449219 C 378.613281 411.449219 411.945312 378.113281 411.945312 336.996094 C 411.945312 295.878906 378.613281 262.546875 337.496094 262.546875 Z M 337.496094 262.546875 " clip-rule="nonzero"/></clipPath><clipPath id="822c943aff"><path d="M 317.796875 317.296875 L 357.203125 317.296875 L 357.203125 356.707031 L 317.796875 356.707031 Z M 317.796875 317.296875 " clip-rule="nonzero"/></clipPath><clipPath id="14a7cc668a"><path d="M 337.5 317.296875 C 326.617188 317.296875 317.796875 326.117188 317.796875 337 C 317.796875 347.882812 326.617188 356.707031 337.5 356.707031 C 348.382812 356.707031 357.203125 347.882812 357.203125 337 C 357.203125 326.117188 348.382812 317.296875 337.5 317.296875 Z M 337.5 317.296875 " clip-rule="nonzero"/></clipPath></defs><g clip-path="url(#3d6b8a93fe)"><g clip-path="url(#4478c709f3)"><path fill="#050505" d="M 0.5 0 L 674.5 0 L 674.5 674 L 0.5 674 Z M 0.5 0 " fill-opacity="1" fill-rule="nonzero"/></g></g><g clip-path="url(#e9da755913)"><g clip-path="url(#0d0f12fe33)"><path stroke-linecap="butt" transform="matrix(0.748891, 0, 0, 0.748891, 14.083784, 13.584545)" fill="none" stroke-linejoin="miter" d="M 431.860485 0.00186003 C 193.351402 0.00186003 -0.00234037 193.350386 -0.00234037 431.859469 C -0.00234037 670.368553 193.351402 863.717079 431.860485 863.717079 C 670.369568 863.717079 863.718094 670.368553 863.718094 431.859469 C 863.718094 193.350386 670.369568 0.00186003 431.860485 0.00186003 Z M 431.860485 0.00186003 " stroke="#14004f" stroke-width="4" stroke-opacity="1" stroke-miterlimit="4"/></g></g><g clip-path="url(#2274578a0f)"><g clip-path="url(#70ba36b805)"><path stroke-linecap="butt" transform="matrix(0.74889, 0, 0, 0.74889, 24.533419, 24.03418)" fill="none" stroke-linejoin="miter" d="M 417.907023 0.00130403 C 187.10203 0.00130403 0.00231968 187.101015 0.00231968 417.906007 C 0.00231968 648.711 187.10203 835.810711 417.907023 835.810711 C 648.712016 835.810711 835.811727 648.711 835.811727 417.906007 C 835.811727 187.101015 648.712016 0.00130403 417.907023 0.00130403 Z M 417.907023 0.00130403 " stroke="#14004f" stroke-width="4" stroke-opacity="1" stroke-miterlimit="4"/></g></g><g clip-path="url(#f43134aa58)"><g clip-path="url(#e10248ce39)"><path stroke-linecap="butt" transform="matrix(0.748891, 0, 0, 0.748891, 52.365839, 51.866599)" fill="none" stroke-linejoin="miter" d="M 380.736908 0.000785318 C 170.462301 0.000785318 0.00180097 170.461286 0.00180097 380.735893 C 0.00180097 591.0105 170.462301 761.471 380.736908 761.471 C 591.006299 761.471 761.4668 591.0105 761.4668 380.735893 C 761.4668 170.461286 591.006299 0.000785318 380.736908 0.000785318 Z M 380.736908 0.000785318 " stroke="#14004f" stroke-width="4" stroke-opacity="1" stroke-miterlimit="4"/></g></g><g clip-path="url(#0f4adfa42b)"><g clip-path="url(#1324762af1)"><path fill="#9764d8" d="M 263.046875 262.546875 L 411.953125 262.546875 L 411.953125 411.453125 L 263.046875 411.453125 Z M 263.046875 262.546875 " fill-opacity="1" fill-rule="nonzero"/></g></g><g clip-path="url(#de4776f663)"><g clip-path="url(#a5e234f4fb)"><path stroke-linecap="butt" transform="matrix(0.748891, 0, 0, 0.748891, 263.046344, 262.547105)" fill="none" stroke-linejoin="miter" d="M 99.413398 -0.000306787 C 44.50926 -0.000306787 0.000708868 44.508244 0.000708868 99.412382 C 0.000708868 154.31652 44.50926 198.830287 99.413398 198.830287 C 154.317536 198.830287 198.826087 154.31652 198.826087 99.412382 C 198.826087 44.508244 154.317536 -0.000306787 99.413398 -0.000306787 Z M 99.413398 -0.000306787 " stroke="#905cd2" stroke-width="24" stroke-opacity="1" stroke-miterlimit="4"/></g></g><g clip-path="url(#822c943aff)"><g clip-path="url(#14a7cc668a)"><path fill="#d9d9d9" d="M 317.796875 317.296875 L 357.203125 317.296875 L 357.203125 356.703125 L 317.796875 356.703125 Z M 317.796875 317.296875 " fill-opacity="1" fill-rule="nonzero"/></g></g></svg>